<svg width="16" height="16" viewBox="0 0 16 16" fill="none" xmlns="http://www.w3.org/2000/svg">
<g clip-path="url(#clip0_1_431)">
<g clip-path="url(#clip1_1_431)">
<path d="M16.0001 0H6.10352e-05V16H16.0001V0Z" fill="#EEEEEE"/>
<path d="M7.95099 2.6503L9.32522 6.773H13.6442L10.1105 9.22699L11.4847 13.3497L7.95099 10.7975L4.51541 13.3497L5.88964 9.22699L2.3559 6.773H6.67491L7.95099 2.6503Z" fill="white"/>
</g>
</g>
<g clip-path="url(#clip2_1_431)">
<g clip-path="url(#clip3_1_431)">
<path d="M16.0001 0H6.10352e-05V16H16.0001V0Z" fill="#4DCE94"/>
<path d="M7.95099 2.6503L9.32522 6.773H13.6442L10.1105 9.22699L11.4847 13.3497L7.95099 10.7975L4.51541 13.3497L5.88964 9.22699L2.3559 6.773H6.67491L7.95099 2.6503Z" fill="white"/>
</g>
</g>
<defs>
<clipPath id="clip0_1_431">
<rect width="16" height="16" fill="white"/>
</clipPath>
<clipPath id="clip1_1_431">
<rect width="16" height="16" fill="white"/>
</clipPath>
<clipPath id="clip2_1_431">
<rect width="12.8" height="16" fill="white"/>
</clipPath>
<clipPath id="clip3_1_431">
<rect width="16" height="16" fill="white"/>
</clipPath>
</defs>
</svg>
